{
  "accessors": [
    {
      "bufferView": 2,
      "componentType": 5126,
      "count": 6928,
      "max": [
        0.10472539812326431,
        0.050493136048316956,
        0.004075751639902592
      ],
      "min": [
        -0.11593571305274963,
        -0.04471715912222862,
        0.0
      ],
      "type": "VEC3"
    },
    {
      "bufferView": 2,
      "byteOffset": 83136,
      "componentType": 5126,
      "count": 6928,
      "max": [
        1.0,
        1.0,
        1.0
      ],
      "min": [
        -1.0,
        -1.0,
        -1.0
      ],
      "type": "VEC3"
    },
    {
      "bufferView": 3,
      "componentType": 5126,
      "count": 6928,
      "max": [
        0.9999695420265198,
        1.0,
        1.0,
        1.0
      ],
      "min": [
        -1.0,
        -1.0,
        -1.0,
        -1.0
      ],
      "type": "VEC4"
    },
    {
      "bufferView": 1,
      "componentType": 5126,
      "count": 6928,
      "max": [
        0.9441277980804443,
        0.9993782043457031
      ],
      "min": [
        0.0006217453628778458,
        0.0006217211484909058
      ],
      "type": "VEC2"
    },
    {
      "bufferView": 1,
      "byteOffset": 55424,
      "componentType": 5126,
      "count": 6928,
      "max": [
        0.9441277980804443,
        0.9993782043457031
      ],
      "min": [
        0.0006217453628778458,
        0.0006217211484909058
      ],
      "type": "VEC2"
    },
    {
      "bufferView": 1,
      "byteOffset": 110848,
      "componentType": 5126,
      "count": 6928,
      "max": [
        0.9441277980804443,
        0.9993782043457031
      ],
      "min": [
        0.0006217453628778458,
        0.0006217211484909058
      ],
      "type": "VEC2"
    },
    {
      "bufferView": 0,
      "componentType": 5125,
      "count": 15666,
      "type": "SCALAR"
    }
  ],
  "asset": {
    "extras": {
      "author": "AnshiNoWara (https://sketchfab.com/AnshiNoWara)",
      "license": "CC-BY-4.0 (http://creativecommons.org/licenses/by/4.0/)",
      "source": "https://sketchfab.com/3d-models/csgo-logo-e1c3dd5dc948412fb6c5d61d4c196e73",
      "title": "CSGO Logo"
    },
    "generator": "Sketchfab-12.66.0",
    "version": "2.0"
  },
  "bufferViews": [
    {
      "buffer": 0,
      "byteLength": 62664,
      "name": "floatBufferViews",
      "target": 34963
    },
    {
      "buffer": 0,
      "byteLength": 166272,
      "byteOffset": 62664,
      "byteStride": 8,
      "name": "floatBufferViews",
      "target": 34962
    },
    {
      "buffer": 0,
      "byteLength": 166272,
      "byteOffset": 228936,
      "byteStride": 12,
      "name": "floatBufferViews",
      "target": 34962
    },
    {
      "buffer": 0,
      "byteLength": 110848,
      "byteOffset": 395208,
      "byteStride": 16,
      "name": "floatBufferViews",
      "target": 34962
    }
  ],
  "buffers": [
    {
      "byteLength": 506056,
      "uri": "scene.bin"
    }
  ],
  "images": [
    {
      "uri": "textures/Logo_baseColor.png"
    },
    {
      "uri": "textures/Logo_metallicRoughness.png"
    },
    {
      "uri": "textures/Logo_normal.png"
    }
  ],
  "materials": [
    {
      "doubleSided": true,
      "name": "Logo",
      "normalTexture": {
        "index": 2
      },
      "pbrMetallicRoughness": {
        "baseColorTexture": {
          "index": 0
        },
        "metallicRoughnessTexture": {
          "index": 1
        }
      }
    }
  ],
  "meshes": [
    {
      "name": "Logo_Logo_0",
      "primitives": [
        {
          "attributes": {
            "NORMAL": 1,
            "POSITION": 0,
            "TANGENT": 2,
            "TEXCOORD_0": 3,
            "TEXCOORD_1": 4,
            "TEXCOORD_2": 5
          },
          "indices": 6,
          "material": 0,
          "mode": 4
        }
      ]
    }
  ],
  "nodes": [
    {
      "children": [
        1
      ],
      "matrix": [
        1.0,
        0.0,
        0.0,
        0.0,
        0.0,
        2.220446049250313e-16,
        -1.0,
        0.0,
        0.0,
        1.0,
        2.220446049250313e-16,
        0.0,
        0.0,
        0.0,
        0.0,
        1.0
      ],
      "name": "Sketchfab_model"
    },
    {
      "children": [
        2
      ],
      "matrix": [
        1.0,
        0.0,
        0.0,
        0.0,
        0.0,
        0.0,
        1.0,
        0.0,
        0.0,
        -1.0,
        0.0,
        0.0,
        0.0,
        0.0,
        0.0,
        1.0
      ],
      "name": "CSGO logo.fbx"
    },
    {
      "children": [
        3,
        5
      ],
      "name": "RootNode"
    },
    {
      "children": [
        4
      ],
      "matrix": [
        13679.7607421875,
        0.0,
        0.0,
        0.0,
        0.0,
        13679.760742187485,
        0.0005979613820717052,
        0.0,
        0.0,
        -0.0005979613820717052,
        13679.760742187485,
        0.0,
        0.0,
        0.0,
        0.0,
        1.0
      ],
      "name": "Logo"
    },
    {
      "mesh": 0,
      "name": "Logo_Logo_0"
    },
    {
      "children": [
        6
      ],
      "matrix": [
        89.19032723867949,
        44.13458488227732,
        9.860297673259662,
        0.0,
        -44.134584958101954,
        80.19603107592584,
        40.258372248815284,
        0.0,
        9.860296581588534,
        -40.25836926047074,
        91.00570452345666,
        0.0,
        0.0,
        1363.7562255859375,
        -2438.959228515625,
        1.0
      ],
      "name": "Sun"
    },
    {
      "children": [
        7
      ],
      "matrix": [
        1.0,
        0.0,
        0.0,
        0.0,
        0.0,
        2.220446049250313e-16,
        1.0,
        0.0,
        0.0,
        -1.0,
        2.220446049250313e-16,
        0.0,
        0.0,
        0.0,
        0.0,
        1.0
      ],
      "name": "Object_6"
    },
    {
      "name": "Object_7"
    }
  ],
  "samplers": [
    {
      "magFilter": 9729,
      "minFilter": 9987,
      "wrapS": 10497,
      "wrapT": 10497
    }
  ],
  "scene": 0,
  "scenes": [
    {
      "name": "Sketchfab_Scene",
      "nodes": [
        0
      ]
    }
  ],
  "textures": [
    {
      "sampler": 0,
      "source": 0
    },
    {
      "sampler": 0,
      "source": 1
    },
    {
      "sampler": 0,
      "source": 2
    }
  ]
}
