{
  "accessors": [
    {
      "bufferView": 2,
      "componentType": 5126,
      "count": 65532,
      "max": [
        415.5628356933594,
        273.15570068359375,
        395.97406005859375
      ],
      "min": [
        15.7099609375,
        5.1988525390625,
        79.8544921875
      ],
      "type": "VEC3"
    },
    {
      "bufferView": 2,
      "byteOffset": 786384,
      "componentType": 5126,
      "count": 65532,
      "max": [
        1.0,
        1.0,
        1.0
      ],
      "min": [
        -1.0,
        -1.0,
        -1.0
      ],
      "type": "VEC3"
    },
    {
      "bufferView": 1,
      "componentType": 5126,
      "count": 65532,
      "max": [
        0.9942945241928101,
        0.9953317046165466
      ],
      "min": [
        0.004668302368372679,
        0.0010494589805603027
      ],
      "type": "VEC2"
    },
    {
      "bufferView": 0,
      "componentType": 5125,
      "count": 324960,
      "type": "SCALAR"
    },
    {
      "bufferView": 2,
      "byteOffset": 1572768,
      "componentType": 5126,
      "count": 65532,
      "max": [
        399.84161376953125,
        371.51727294921875,
        316.2239685058594
      ],
      "min": [
        93.46754455566406,
        52.03924560546875,
        0.0
      ],
      "type": "VEC3"
    },
    {
      "bufferView": 2,
      "byteOffset": 2359152,
      "componentType": 5126,
      "count": 65532,
      "max": [
        1.0,
        1.0,
        1.0
      ],
      "min": [
        -1.0,
        -1.0,
        -1.0
      ],
      "type": "VEC3"
    },
    {
      "bufferView": 1,
      "byteOffset": 524256,
      "componentType": 5126,
      "count": 65532,
      "max": [
        0.9702042937278748,
        0.9953317046165466
      ],
      "min": [
        0.12137587368488312,
        0.012995362281799316
      ],
      "type": "VEC2"
    },
    {
      "bufferView": 0,
      "byteOffset": 1299840,
      "componentType": 5125,
      "count": 352935,
      "type": "SCALAR"
    },
    {
      "bufferView": 2,
      "byteOffset": 3145536,
      "componentType": 5126,
      "count": 65532,
      "max": [
        412.1924133300781,
        391.5583190917969,
        370.35443115234375
      ],
      "min": [
        0.0,
        0.0077972412109375,
        2.8545074462890625
      ],
      "type": "VEC3"
    },
    {
      "bufferView": 2,
      "byteOffset": 3931920,
      "componentType": 5126,
      "count": 65532,
      "max": [
        1.0,
        1.0,
        1.0
      ],
      "min": [
        -1.0,
        -1.0,
        -1.0
      ],
      "type": "VEC3"
    },
    {
      "bufferView": 1,
      "byteOffset": 1048512,
      "componentType": 5126,
      "count": 65532,
      "max": [
        0.9672866463661194,
        0.9953317046165466
      ],
      "min": [
        0.004668302834033966,
        0.3449023365974426
      ],
      "type": "VEC2"
    },
    {
      "bufferView": 0,
      "byteOffset": 2711580,
      "componentType": 5125,
      "count": 357024,
      "type": "SCALAR"
    },
    {
      "bufferView": 2,
      "byteOffset": 4718304,
      "componentType": 5126,
      "count": 56789,
      "max": [
        412.1924133300781,
        366.0751037597656,
        358.35443115234375
      ],
      "min": [
        54.692474365234375,
        0.0,
        26.80450439453125
      ],
      "type": "VEC3"
    },
    {
      "bufferView": 2,
      "byteOffset": 5399772,
      "componentType": 5126,
      "count": 56789,
      "max": [
        1.0,
        1.0,
        1.0
      ],
      "min": [
        -1.0,
        -1.0,
        -1.0
      ],
      "type": "VEC3"
    },
    {
      "bufferView": 1,
      "byteOffset": 1572768,
      "componentType": 5126,
      "count": 56789,
      "max": [
        0.9672106504440308,
        0.9819459319114685
      ],
      "min": [
        0.29410308599472046,
        0.001984894275665283
      ],
      "type": "VEC2"
    },
    {
      "bufferView": 0,
      "byteOffset": 4139676,
      "componentType": 5125,
      "count": 315081,
      "type": "SCALAR"
    }
  ],
  "asset": {
    "extras": {
      "author": "Alienor.org, Conseil des musées (https://sketchfab.com/alienor.org)",
      "license": "CC-BY-NC-ND-4.0 (http://creativecommons.org/licenses/by-nc-nd/4.0/)",
      "source": "https://sketchfab.com/3d-models/masque-dinitiation-des-jeunes-diola-au-senegal-f2bed2f433a740299abdb598d7678627",
      "title": "Masque d’initiation des jeunes Diola au Sénégal"
    },
    "generator": "Sketchfab-12.68.0",
    "version": "2.0"
  },
  "bufferViews": [
    {
      "buffer": 0,
      "byteLength": 5400000,
      "name": "floatBufferViews",
      "target": 34963
    },
    {
      "buffer": 0,
      "byteLength": 2027080,
      "byteOffset": 5400000,
      "byteStride": 8,
      "name": "floatBufferViews",
      "target": 34962
    },
    {
      "buffer": 0,
      "byteLength": 6081240,
      "byteOffset": 7427080,
      "byteStride": 12,
      "name": "floatBufferViews",
      "target": 34962
    }
  ],
  "buffers": [
    {
      "byteLength": 13508320,
      "uri": "scene.bin"
    }
  ],
  "images": [
    {
      "uri": "textures/material_0_baseColor.jpeg"
    }
  ],
  "materials": [
    {
      "doubleSided": true,
      "name": "material_0",
      "pbrMetallicRoughness": {
        "baseColorFactor": [
          0.96,
          0.96,
          0.96,
          1.0
        ],
        "baseColorTexture": {
          "index": 0
        },
        "metallicFactor": 0.41000000000000003,
        "roughnessFactor": 0.8
      }
    }
  ],
  "meshes": [
    {
      "name": "Object_0",
      "primitives": [
        {
          "attributes": {
            "NORMAL": 1,
            "POSITION": 0,
            "TEXCOORD_0": 2
          },
          "indices": 3,
          "material": 0,
          "mode": 4
        }
      ]
    },
    {
      "name": "Object_1",
      "primitives": [
        {
          "attributes": {
            "NORMAL": 5,
            "POSITION": 4,
            "TEXCOORD_0": 6
          },
          "indices": 7,
          "material": 0,
          "mode": 4
        }
      ]
    },
    {
      "name": "Object_2",
      "primitives": [
        {
          "attributes": {
            "NORMAL": 9,
            "POSITION": 8,
            "TEXCOORD_0": 10
          },
          "indices": 11,
          "material": 0,
          "mode": 4
        }
      ]
    },
    {
      "name": "Object_3",
      "primitives": [
        {
          "attributes": {
            "NORMAL": 13,
            "POSITION": 12,
            "TEXCOORD_0": 14
          },
          "indices": 15,
          "material": 0,
          "mode": 4
        }
      ]
    }
  ],
  "nodes": [
    {
      "children": [
        1
      ],
      "matrix": [
        0.47686612606048584,
        -0.44583123922348006,
        -0.7575178146362306,
        0.0,
        -0.7528197169303894,
        0.237703710794449,
        -0.6138073205947876,
        0.0,
        0.45371925830841064,
        0.8629782199859619,
        -0.2222777009010313,
        0.0,
        -6.070962905883789,
        -44.95687866210936,
        -75.58631896972658,
        1.0
      ],
      "name": "Sketchfab_model"
    },
    {
      "children": [
        2,
        3,
        4,
        5
      ],
      "matrix": [
        1.0,
        0.0,
        0.0,
        0.0,
        0.0,
        1.0,
        0.0,
        0.0,
        0.0,
        0.0,
        1.0,
        0.0,
        -284.5911865234375,
        -156.01158142089844,
        -207.18328857421875,
        1.0
      ],
      "name": "0_SFusion.obj.cleaner.gles"
    },
    {
      "mesh": 0,
      "name": "Object_2"
    },
    {
      "mesh": 1,
      "name": "Object_3"
    },
    {
      "mesh": 2,
      "name": "Object_4"
    },
    {
      "mesh": 3,
      "name": "Object_5"
    }
  ],
  "samplers": [
    {
      "magFilter": 9729,
      "minFilter": 9987,
      "wrapS": 10497,
      "wrapT": 10497
    }
  ],
  "scene": 0,
  "scenes": [
    {
      "name": "Sketchfab_Scene",
      "nodes": [
        0
      ]
    }
  ],
  "textures": [
    {
      "sampler": 0,
      "source": 0
    }
  ]
}
